<?xml version="1.0" encoding="UTF-8"?><svg id="Layer_2" xmlns="http://www.w3.org/2000/svg" viewBox="0 0 620.51 278.44"><defs><style>.cls-1{fill:#fff;}.cls-1,.cls-2,.cls-3{font-family:Calderock-Edge, Calderock;font-size:68px;stroke:#000;stroke-miterlimit:10;stroke-width:.75px;}.cls-2{fill:#d1a25b;}</style></defs><g id="Layer_1-2"><text class="cls-1" transform="translate(56.71 268.96) rotate(-83.89)"><tspan x="0" y="0">O</tspan></text><text class="cls-1" transform="translate(60.27 235.02) rotate(-73.59)"><tspan x="0" y="0">N</tspan></text><text class="cls-1" transform="translate(69.29 204.64) rotate(-64.62)"><tspan x="0" y="0">E</tspan></text><text class="cls-1" transform="translate(81.15 180.06) rotate(-57.92)"><tspan x="0" y="0"> </tspan></text><text class="cls-1" transform="translate(90.56 163.95) rotate(-50.6)"><tspan x="0" y="0">O</tspan></text><text class="cls-1" transform="translate(112.63 137.36) rotate(-42.72)"><tspan x="0" y="0">F</tspan></text><text class="cls-1" transform="translate(132.96 118.81) rotate(-37.13)"><tspan x="0" y="0"> </tspan></text><text class="cls-1" transform="translate(147.79 107.09) rotate(-31.3)"><tspan x="0" y="0">T</tspan></text><text class="cls-1" transform="translate(175.19 90.36) rotate(-24.35)"><tspan x="0" y="0">H</tspan></text><text class="cls-1" transform="translate(204.59 77.14) rotate(-18.17)"><tspan x="0" y="0">E</tspan></text><text class="cls-3" transform="translate(230.92 68.65) rotate(-13.48)"><tspan x="0" y="0"> </tspan></text><text class="cls-2" transform="translate(248.97 63.28) rotate(-6.72)"><tspan x="0" y="0">M</tspan></text><text class="cls-2" transform="translate(296.5 57.95) rotate(.79)"><tspan x="0" y="0">O</tspan></text><text class="cls-2" transform="translate(330.11 58.37) rotate(6.78)"><tspan x="0" y="0">S</tspan></text><text class="cls-2" transform="translate(357.11 61.3) rotate(12.16)"><tspan x="0" y="0">T</tspan></text><text class="cls-2" transform="translate(388.77 68.39) rotate(17.3)"><tspan x="0" y="0"> </tspan></text><text class="cls-2" transform="translate(407.06 73.8) rotate(22.27)"><tspan x="0" y="0">R</tspan></text><text class="cls-2" transform="translate(434.1 84.84) rotate(28.29)"><tspan x="0" y="0">E</tspan></text><text class="cls-2" transform="translate(458.27 97.63) rotate(34.8)"><tspan x="0" y="0">S</tspan></text><text class="cls-2" transform="translate(483.68 115.26) rotate(41.82)"><tspan x="0" y="0">P</tspan></text><text class="cls-2" transform="translate(504.89 134.15) rotate(48.85)"><tspan x="0" y="0">E</tspan></text><text class="cls-2" transform="translate(521.9 153.16) rotate(56.09)"><tspan x="0" y="0">C</tspan></text><text class="cls-2" transform="translate(537.96 176.45) rotate(64.57)"><tspan x="0" y="0">T</tspan></text><text class="cls-2" transform="translate(551.54 205.09) rotate(73.54)"><tspan x="0" y="0">E</tspan></text><text class="cls-2" transform="translate(559.42 230.77) rotate(82.6)"><tspan x="0" y="0">D</tspan></text></g></svg>