<?xml version="1.0" encoding="UTF-8"?><svg id="Layer_2" xmlns="http://www.w3.org/2000/svg" viewBox="0 0 610.58 286.23"><defs><style>.cls-1,.cls-2,.cls-3{font-family:Calderock-Edge, Calderock;font-size:62px;stroke:#000;stroke-miterlimit:10;stroke-width:.75px;}.cls-2{fill:#d1a25b;}.cls-3{fill:#fff;}</style></defs><g id="Layer_1-2"><text class="cls-3" transform="translate(53.41 269.51) rotate(-91.24)"><tspan x="0" y="0">3</tspan></text><text class="cls-3" transform="translate(53.71 243.21) rotate(-80.21)"><tspan x="0" y="0"> </tspan></text><text class="cls-3" transform="translate(56.19 226.34) rotate(-73.07)"><tspan x="0" y="0">D</tspan></text><text class="cls-3" transform="translate(64.35 199.64) rotate(-65.02)"><tspan x="0" y="0">E</tspan></text><text class="cls-3" transform="translate(73.97 178.43) rotate(-57.88)"><tspan x="0" y="0">C</tspan></text><text class="cls-3" transform="translate(88.28 155.37) rotate(-50.18)"><tspan x="0" y="0">A</tspan></text><text class="cls-3" transform="translate(106.95 132.94) rotate(-42.86)"><tspan x="0" y="0">D</tspan></text><text class="cls-3" transform="translate(127.69 113.75) rotate(-36.48)"><tspan x="0" y="0">E</tspan></text><text class="cls-3" transform="translate(147.71 98.77) rotate(-30.44)"><tspan x="0" y="0">S</tspan></text><text class="cls-3" transform="translate(172.41 84.5) rotate(-25.46)"><tspan x="0" y="0"> </tspan></text><text class="cls-3" transform="translate(187.96 76.7) rotate(-20.29)"><tspan x="0" y="0">O</tspan></text><text class="cls-3" transform="translate(217.87 65.77) rotate(-14.54)"><tspan x="0" y="0">F</tspan></text><text class="cls-1" transform="translate(242.42 59.53) rotate(-10.32)"><tspan x="0" y="0"> </tspan></text><text class="cls-2" transform="translate(259.64 56.2) rotate(-6.08)"><tspan x="0" y="0">P</tspan></text><text class="cls-2" transform="translate(285.75 53.37) rotate(-1.06)"><tspan x="0" y="0">R</tspan></text><text class="cls-2" transform="translate(310.64 52.66) rotate(4.08)"><tspan x="0" y="0">O</tspan></text><text class="cls-2" transform="translate(338.87 54.52) rotate(9.27)"><tspan x="0" y="0">V</tspan></text><text class="cls-2" transform="translate(367.99 59.32) rotate(14.64)"><tspan x="0" y="0">E</tspan></text><text class="cls-2" transform="translate(392.33 65.52) rotate(20.16)"><tspan x="0" y="0">N</tspan></text><text class="cls-2" transform="translate(420.02 75.91) rotate(25.07)"><tspan x="0" y="0"> </tspan></text><text class="cls-2" transform="translate(435.92 83.11) rotate(29.79)"><tspan x="0" y="0">P</tspan></text><text class="cls-2" transform="translate(458.6 95.99) rotate(35.73)"><tspan x="0" y="0">R</tspan></text><text class="cls-2" transform="translate(478.85 110.15) rotate(42.23)"><tspan x="0" y="0">O</tspan></text><text class="cls-2" transform="translate(501.09 129.07) rotate(51.56)"><tspan x="0" y="0">W</tspan></text><text class="cls-2" transform="translate(528.93 165.3) rotate(61.36)"><tspan x="0" y="0">E</tspan></text><text class="cls-2" transform="translate(540.97 186.87) rotate(69.25)"><tspan x="0" y="0">S</tspan></text><text class="cls-2" transform="translate(550.98 212.92) rotate(77.98)"><tspan x="0" y="0">S</tspan></text><text class="cls-2" transform="translate(556.46 240.7) rotate(84.11)"><tspan x="0" y="0">!</tspan></text><text class="cls-2" transform="translate(557.95 250.27) rotate(94.68)"><tspan x="0" y="0">!</tspan></text></g></svg>